<svg width="40" height="40" viewBox="0 0 40 40" fill="none" xmlns="http://www.w3.org/2000/svg">
<circle opacity="0.15" cx="20" cy="20" r="20" fill="#858686"/>
<path d="M31.3488 25.044C31.3488 25.7401 30.7839 26.3051 30.0878 26.3051H9.91141C9.21533 26.3051 8.65039 25.7401 8.65039 25.044V14.9558C8.65039 14.2598 9.21533 13.6948 9.91141 13.6948H30.0878C30.7839 13.6948 31.3488 14.2598 31.3488 14.9558V25.044Z" fill="#99AAB5"/>
<path d="M12.1181 19.3695C12.1181 19.7182 11.8356 20.0001 11.4876 20.0001H10.8571C10.509 20.0001 10.2266 19.7182 10.2266 19.3695V18.739C10.2266 18.3904 10.509 18.1085 10.8571 18.1085H11.4876C11.8356 18.1085 12.1181 18.3904 12.1181 18.739V19.3695ZM14.6401 19.3695C14.6401 19.7182 14.3577 20.0001 14.0096 20.0001H13.3791C13.0311 20.0001 12.7486 19.7182 12.7486 19.3695V18.739C12.7486 18.3904 13.0311 18.1085 13.3791 18.1085H14.0096C14.3577 18.1085 14.6401 18.3904 14.6401 18.739V19.3695ZM17.1622 19.3695C17.1622 19.7182 16.8797 20.0001 16.5317 20.0001H15.9012C15.5531 20.0001 15.2707 19.7182 15.2707 19.3695V18.739C15.2707 18.3904 15.5531 18.1085 15.9012 18.1085H16.5317C16.8797 18.1085 17.1622 18.3904 17.1622 18.739V19.3695ZM19.6842 19.3695C19.6842 19.7182 19.4018 20.0001 19.0537 20.0001H18.4232C18.0752 20.0001 17.7927 19.7182 17.7927 19.3695V18.739C17.7927 18.3904 18.0752 18.1085 18.4232 18.1085H19.0537C19.4018 18.1085 19.6842 18.3904 19.6842 18.739V19.3695ZM22.2063 19.3695C22.2063 19.7182 21.9244 20.0001 21.5758 20.0001H20.9453C20.5966 20.0001 20.3147 19.7182 20.3147 19.3695V18.739C20.3147 18.3904 20.5966 18.1085 20.9453 18.1085H21.5758C21.9244 18.1085 22.2063 18.3904 22.2063 18.739V19.3695ZM24.7283 19.3695C24.7283 19.7182 24.4465 20.0001 24.0978 20.0001H23.4673C23.1186 20.0001 22.8368 19.7182 22.8368 19.3695V18.739C22.8368 18.3904 23.1186 18.1085 23.4673 18.1085H24.0978C24.4465 18.1085 24.7283 18.3904 24.7283 18.739V19.3695ZM27.2504 19.3695C27.2504 19.7182 26.9685 20.0001 26.6199 20.0001H25.9893C25.6407 20.0001 25.3588 19.7182 25.3588 19.3695V18.739C25.3588 18.3904 25.6407 18.1085 25.9893 18.1085H26.6199C26.9685 18.1085 27.2504 18.3904 27.2504 18.739V19.3695ZM29.7724 19.3695C29.7724 19.7182 29.4906 20.0001 29.1419 20.0001H28.5114C28.1627 20.0001 27.8809 19.7182 27.8809 19.3695V18.739C27.8809 18.3904 28.1627 18.1085 28.5114 18.1085H29.1419C29.4906 18.1085 29.7724 18.3904 29.7724 18.739V19.3695ZM13.3791 21.8916C13.3791 22.2403 13.0967 22.5221 12.7486 22.5221H12.1181C11.7701 22.5221 11.4876 22.2403 11.4876 21.8916V21.2611C11.4876 20.9124 11.7701 20.6306 12.1181 20.6306H12.7486C13.0967 20.6306 13.3791 20.9124 13.3791 21.2611V21.8916ZM15.9012 21.8916C15.9012 22.2403 15.6187 22.5221 15.2707 22.5221H14.6401C14.2921 22.5221 14.0096 22.2403 14.0096 21.8916V21.2611C14.0096 20.9124 14.2921 20.6306 14.6401 20.6306H15.2707C15.6187 20.6306 15.9012 20.9124 15.9012 21.2611V21.8916ZM18.4232 21.8916C18.4232 22.2403 18.1407 22.5221 17.7927 22.5221H17.1622C16.8141 22.5221 16.5317 22.2403 16.5317 21.8916V21.2611C16.5317 20.9124 16.8141 20.6306 17.1622 20.6306H17.7927C18.1407 20.6306 18.4232 20.9124 18.4232 21.2611V21.8916ZM20.9453 21.8916C20.9453 22.2403 20.6634 22.5221 20.3147 22.5221H19.6842C19.3362 22.5221 19.0537 22.2403 19.0537 21.8916V21.2611C19.0537 20.9124 19.3362 20.6306 19.6842 20.6306H20.3147C20.6634 20.6306 20.9453 20.9124 20.9453 21.2611V21.8916ZM23.4673 21.8916C23.4673 22.2403 23.1855 22.5221 22.8368 22.5221H22.2063C21.8576 22.5221 21.5758 22.2403 21.5758 21.8916V21.2611C21.5758 20.9124 21.8576 20.6306 22.2063 20.6306H22.8368C23.1855 20.6306 23.4673 20.9124 23.4673 21.2611V21.8916ZM25.9893 21.8916C25.9893 22.2403 25.7075 22.5221 25.3588 22.5221H24.7283C24.3797 22.5221 24.0978 22.2403 24.0978 21.8916V21.2611C24.0978 20.9124 24.3797 20.6306 24.7283 20.6306H25.3588C25.7075 20.6306 25.9893 20.9124 25.9893 21.2611V21.8916ZM28.5114 21.8916C28.5114 22.2403 28.2296 22.5221 27.8809 22.5221H27.2504C26.9017 22.5221 26.6199 22.2403 26.6199 21.8916V21.2611C26.6199 20.9124 26.9017 20.6306 27.2504 20.6306H27.8809C28.2296 20.6306 28.5114 20.9124 28.5114 21.2611V21.8916ZM14.9554 24.4136C14.9554 24.7623 14.6729 25.0442 14.3249 25.0442H13.0639C12.7158 25.0442 12.4334 24.7623 12.4334 24.4136V23.7831C12.4334 23.4345 12.7158 23.1526 13.0639 23.1526H14.3249C14.6729 23.1526 14.9554 23.4345 14.9554 23.7831V24.4136ZM27.5656 24.4136C27.5656 24.7623 27.2838 25.0442 26.9351 25.0442H25.6741C25.3254 25.0442 25.0436 24.7623 25.0436 24.4136V23.7831C25.0436 23.4345 25.3254 23.1526 25.6741 23.1526H26.9351C27.2838 23.1526 27.5656 23.4345 27.5656 23.7831V24.4136ZM24.4131 24.4136C24.4131 24.7623 24.1312 25.0442 23.7826 25.0442H16.2164C15.8684 25.0442 15.5859 24.7623 15.5859 24.4136V23.7831C15.5859 23.4345 15.8684 23.1526 16.2164 23.1526H23.7826C24.1312 23.1526 24.4131 23.4345 24.4131 23.7831V24.4136ZM12.1181 15.6388C12.1181 15.9869 11.8356 16.2693 11.4876 16.2693H10.8571C10.509 16.2693 10.2266 15.9869 10.2266 15.6388C10.2266 15.2908 10.509 15.0083 10.8571 15.0083H11.4876C11.8356 15.0083 12.1181 15.2908 12.1181 15.6388ZM14.6401 15.6388C14.6401 15.9869 14.3577 16.2693 14.0096 16.2693H13.3791C13.0311 16.2693 12.7486 15.9869 12.7486 15.6388C12.7486 15.2908 13.0311 15.0083 13.3791 15.0083H14.0096C14.3577 15.0083 14.6401 15.2908 14.6401 15.6388ZM17.1622 15.6388C17.1622 15.9869 16.8797 16.2693 16.5317 16.2693H15.9012C15.5531 16.2693 15.2707 15.9869 15.2707 15.6388C15.2707 15.2908 15.5531 15.0083 15.9012 15.0083H16.5317C16.8797 15.0083 17.1622 15.2908 17.1622 15.6388ZM19.6842 15.6388C19.6842 15.9869 19.4018 16.2693 19.0537 16.2693H18.4232C18.0752 16.2693 17.7927 15.9869 17.7927 15.6388C17.7927 15.2908 18.0752 15.0083 18.4232 15.0083H19.0537C19.4018 15.0083 19.6842 15.2908 19.6842 15.6388ZM22.2063 15.6388C22.2063 15.9869 21.9244 16.2693 21.5758 16.2693H20.9453C20.5966 16.2693 20.3147 15.9869 20.3147 15.6388C20.3147 15.2908 20.5966 15.0083 20.9453 15.0083H21.5758C21.9244 15.0083 22.2063 15.2908 22.2063 15.6388ZM24.7283 15.6388C24.7283 15.9869 24.4465 16.2693 24.0978 16.2693H23.4673C23.1186 16.2693 22.8368 15.9869 22.8368 15.6388C22.8368 15.2908 23.1186 15.0083 23.4673 15.0083H24.0978C24.4465 15.0083 24.7283 15.2908 24.7283 15.6388ZM27.2504 15.6388C27.2504 15.9869 26.9685 16.2693 26.6199 16.2693H25.9893C25.6407 16.2693 25.3588 15.9869 25.3588 15.6388C25.3588 15.2908 25.6407 15.0083 25.9893 15.0083H26.6199C26.9685 15.0083 27.2504 15.2908 27.2504 15.6388ZM29.7724 15.6388C29.7724 15.9869 29.4906 16.2693 29.1419 16.2693H28.5114C28.1627 16.2693 27.8809 15.9869 27.8809 15.6388C27.8809 15.2908 28.1627 15.0083 28.5114 15.0083H29.1419C29.4906 15.0083 29.7724 15.2908 29.7724 15.6388Z" fill="#292F33"/>
</svg>
